<svg width="290" height="283" viewBox="0 0 290 283" fill="none" xmlns="http://www.w3.org/2000/svg">
<path d="M233.646 142.506C235.665 156.87 234.835 171.491 231.203 185.535C227.571 199.578 221.209 212.768 212.479 224.353C203.75 235.938 192.824 245.689 180.326 253.051C167.827 260.413 154.001 265.242 139.637 267.26L124.264 157.878L233.646 142.506Z" fill="url(#paint0_linear_416_1438)"/>
<path d="M164.58 268.097C140.781 276.802 114.805 277.57 90.5334 270.287C66.2621 263.004 45.0001 248.061 29.9261 227.691L124.264 157.878L164.58 268.097Z" fill="#D9D9D9"/>
<path d="M164.58 268.097C140.781 276.802 114.805 277.57 90.5334 270.287C66.2621 263.004 45.0001 248.061 29.9261 227.691L124.264 157.878L164.58 268.097Z" fill="url(#paint1_linear_416_1438)"/>
<path d="M30.2135 117.956C37.7853 100.118 50.2737 84.8017 66.2217 73.7932C82.1696 62.7847 100.919 56.5385 120.283 55.7835L124.264 157.878L30.2135 117.956Z" fill="url(#paint2_linear_416_1438)"/>
<path d="M147.737 6.00024C177.996 6.00024 207.216 17.0415 229.914 37.0524C252.612 57.0634 267.228 84.6689 271.021 114.69L147.737 130.264V6.00024Z" fill="#D9D9D9"/>
<path d="M147.737 6.00024C177.996 6.00024 207.216 17.0415 229.914 37.0524C252.612 57.0634 267.228 84.6689 271.021 114.69L147.737 130.264V6.00024Z" fill="url(#paint3_linear_416_1438)"/>
<path d="M75.7102 272.264C45.3732 259.387 21.3943 234.986 9.04842 204.429C-3.29743 173.872 -2.99889 139.662 9.87838 109.325L124.264 157.879L75.7102 272.264Z" fill="url(#paint4_linear_416_1438)"/>
<g filter="url(#filter0_bd_416_1438)">
<path d="M150.498 157.878C150.498 172.367 138.753 184.112 124.264 184.112C109.776 184.112 98.0308 172.367 98.0308 157.878C98.0308 143.39 109.776 131.645 124.264 131.645C138.753 131.645 150.498 143.39 150.498 157.878ZM105.901 157.878C105.901 168.02 114.122 176.242 124.264 176.242C134.406 176.242 142.628 168.02 142.628 157.878C142.628 147.737 134.406 139.515 124.264 139.515C114.122 139.515 105.901 147.737 105.901 157.878Z" fill="white" fill-opacity="0.9" shape-rendering="crispEdges"/>
</g>
<g filter="url(#filter1_bd_416_1438)">
<rect x="109.076" y="142.691" width="30.3756" height="30.3756" rx="15.1878" fill="white" fill-opacity="0.9" shape-rendering="crispEdges"/>
</g>
<path d="M112.19 229.617V243.675H109.217V232.438H109.135L105.916 234.456V231.821L109.396 229.617H112.19ZM115.318 241.204V238.863L121.187 229.617H123.205V232.857H122.011L118.311 238.712V238.822H126.651V241.204H115.318ZM122.066 243.675V240.49L122.121 239.454V229.617H124.908V243.675H122.066ZM136.326 241.039V240.298C136.326 239.735 136.445 239.218 136.683 238.747C136.926 238.271 137.276 237.891 137.734 237.607C138.196 237.319 138.759 237.175 139.422 237.175C140.095 237.175 140.66 237.317 141.118 237.6C141.58 237.884 141.928 238.264 142.161 238.74C142.399 239.211 142.518 239.731 142.518 240.298V241.039C142.518 241.602 142.399 242.122 142.161 242.598C141.923 243.069 141.573 243.446 141.111 243.73C140.649 244.019 140.086 244.163 139.422 244.163C138.749 244.163 138.184 244.019 137.727 243.73C137.269 243.446 136.921 243.069 136.683 242.598C136.445 242.122 136.326 241.602 136.326 241.039ZM138.324 240.298V241.039C138.324 241.364 138.402 241.671 138.557 241.959C138.717 242.248 139.006 242.392 139.422 242.392C139.839 242.392 140.122 242.25 140.273 241.966C140.429 241.682 140.507 241.373 140.507 241.039V240.298C140.507 239.964 140.434 239.653 140.287 239.364C140.141 239.076 139.852 238.932 139.422 238.932C139.01 238.932 138.724 239.076 138.564 239.364C138.404 239.653 138.324 239.964 138.324 240.298ZM129.112 232.994V232.253C129.112 231.686 129.233 231.166 129.476 230.695C129.718 230.219 130.068 229.839 130.526 229.555C130.988 229.272 131.547 229.13 132.201 229.13C132.878 229.13 133.446 229.272 133.903 229.555C134.361 229.839 134.709 230.219 134.947 230.695C135.185 231.166 135.304 231.686 135.304 232.253V232.994C135.304 233.562 135.182 234.081 134.94 234.553C134.702 235.024 134.352 235.401 133.89 235.685C133.432 235.964 132.869 236.104 132.201 236.104C131.533 236.104 130.968 235.962 130.505 235.678C130.048 235.39 129.7 235.013 129.462 234.546C129.229 234.074 129.112 233.557 129.112 232.994ZM131.123 232.253V232.994C131.123 233.328 131.201 233.637 131.357 233.921C131.517 234.205 131.798 234.347 132.201 234.347C132.622 234.347 132.908 234.205 133.059 233.921C133.215 233.637 133.292 233.328 133.292 232.994V232.253C133.292 231.919 133.219 231.608 133.073 231.32C132.926 231.031 132.636 230.887 132.201 230.887C131.794 230.887 131.512 231.033 131.357 231.326C131.201 231.619 131.123 231.928 131.123 232.253ZM130.018 243.675L139.683 229.617H141.481L131.817 243.675H130.018Z" fill="#0A1B27"/>
<path d="M72.1491 97.069V111.127H69.1769V99.8902H69.0945L65.8752 101.908V99.2724L69.3554 97.069H72.1491ZM81.6065 97.069V111.127H78.6342V99.8902H78.5519L75.3325 101.908V99.2724L78.8127 97.069H81.6065ZM92.6426 108.491V107.75C92.6426 107.187 92.7616 106.67 92.9995 106.199C93.2421 105.723 93.5922 105.343 94.0498 105.059C94.512 104.771 95.0749 104.627 95.7384 104.627C96.4111 104.627 96.9763 104.768 97.4339 105.052C97.8961 105.336 98.2439 105.716 98.4773 106.192C98.7152 106.663 98.8342 107.182 98.8342 107.75V108.491C98.8342 109.054 98.7152 109.574 98.4773 110.049C98.2393 110.521 97.8892 110.898 97.427 111.182C96.9648 111.47 96.402 111.615 95.7384 111.615C95.0657 111.615 94.5005 111.47 94.0429 111.182C93.5853 110.898 93.2375 110.521 92.9995 110.049C92.7616 109.574 92.6426 109.054 92.6426 108.491ZM94.6401 107.75V108.491C94.6401 108.816 94.7179 109.123 94.8735 109.411C95.0337 109.699 95.322 109.844 95.7384 109.844C96.1548 109.844 96.4386 109.702 96.5896 109.418C96.7452 109.134 96.823 108.825 96.823 108.491V107.75C96.823 107.416 96.7498 107.105 96.6033 106.816C96.4569 106.528 96.1686 106.384 95.7384 106.384C95.3266 106.384 95.0405 106.528 94.8804 106.816C94.7202 107.105 94.6401 107.416 94.6401 107.75ZM85.4282 100.446V99.7049C85.4282 99.1374 85.5495 98.618 85.792 98.1467C86.0345 97.6708 86.3846 97.2909 86.8422 97.0072C87.3044 96.7235 87.8627 96.5816 88.5171 96.5816C89.1944 96.5816 89.7619 96.7235 90.2195 97.0072C90.6771 97.2909 91.0249 97.6708 91.2629 98.1467C91.5008 98.618 91.6198 99.1374 91.6198 99.7049V100.446C91.6198 101.014 91.4985 101.533 91.256 102.004C91.018 102.476 90.668 102.853 90.2058 103.137C89.7481 103.416 89.1853 103.556 88.5171 103.556C87.849 103.556 87.2838 103.414 86.8217 103.13C86.364 102.842 86.0162 102.464 85.7783 101.998C85.5449 101.526 85.4282 101.009 85.4282 100.446ZM87.4394 99.7049V100.446C87.4394 100.78 87.5172 101.089 87.6728 101.373C87.833 101.657 88.1144 101.799 88.5171 101.799C88.9382 101.799 89.2242 101.657 89.3752 101.373C89.5308 101.089 89.6086 100.78 89.6086 100.446V99.7049C89.6086 99.3708 89.5353 99.0596 89.3889 98.7713C89.2425 98.483 88.9519 98.3389 88.5171 98.3389C88.1099 98.3389 87.8284 98.4853 87.6728 98.7782C87.5172 99.0711 87.4394 99.38 87.4394 99.7049ZM86.3343 111.127L95.9993 97.069H97.7977L88.1327 111.127H86.3343Z" fill="#0A1B27"/>
<path d="M27.3729 184.305V182.163L32.377 177.53C32.8026 177.118 33.1595 176.747 33.4478 176.418C33.7407 176.088 33.9626 175.766 34.1136 175.45C34.2647 175.129 34.3402 174.784 34.3402 174.413C34.3402 174.001 34.2464 173.647 34.0587 173.349C33.8711 173.047 33.6148 172.816 33.2899 172.656C32.965 172.491 32.5966 172.409 32.1848 172.409C31.7546 172.409 31.3794 172.496 31.059 172.67C30.7387 172.844 30.4916 173.093 30.3177 173.418C30.1438 173.743 30.0568 174.13 30.0568 174.578H27.2356C27.2356 173.658 27.4438 172.86 27.8602 172.182C28.2767 171.505 28.8601 170.981 29.6106 170.61C30.3611 170.24 31.2261 170.054 32.2054 170.054C33.2121 170.054 34.0885 170.233 34.8344 170.59C35.5849 170.942 36.1684 171.432 36.5848 172.059C37.0012 172.686 37.2095 173.404 37.2095 174.214C37.2095 174.745 37.1042 175.269 36.8937 175.786C36.6878 176.303 36.3194 176.878 35.7885 177.509C35.2577 178.136 34.5095 178.889 33.5439 179.767L31.4915 181.779V181.875H37.3948V184.305H27.3729ZM45.6646 170.247V184.305H42.6923V173.068H42.61L39.3906 175.086V172.45L42.8708 170.247H45.6646ZM56.7007 181.669V180.928C56.7007 180.365 56.8197 179.848 57.0577 179.376C57.3002 178.9 57.6503 178.52 58.1079 178.237C58.5701 177.948 59.133 177.804 59.7965 177.804C60.4692 177.804 61.0344 177.946 61.492 178.23C61.9542 178.514 62.302 178.893 62.5354 179.369C62.7734 179.841 62.8923 180.36 62.8923 180.928V181.669C62.8923 182.232 62.7734 182.751 62.5354 183.227C62.2974 183.698 61.9474 184.076 61.4852 184.36C61.023 184.648 60.4601 184.792 59.7965 184.792C59.1238 184.792 58.5587 184.648 58.101 184.36C57.6434 184.076 57.2956 183.698 57.0577 183.227C56.8197 182.751 56.7007 182.232 56.7007 181.669ZM58.6982 180.928V181.669C58.6982 181.994 58.776 182.3 58.9316 182.589C59.0918 182.877 59.3801 183.021 59.7965 183.021C60.213 183.021 60.4967 182.879 60.6477 182.596C60.8033 182.312 60.8811 182.003 60.8811 181.669V180.928C60.8811 180.593 60.8079 180.282 60.6614 179.994C60.515 179.706 60.2267 179.562 59.7965 179.562C59.3847 179.562 59.0987 179.706 58.9385 179.994C58.7783 180.282 58.6982 180.593 58.6982 180.928ZM49.4863 173.624V172.883C49.4863 172.315 49.6076 171.796 49.8501 171.324C50.0927 170.848 50.4427 170.469 50.9004 170.185C51.3626 169.901 51.9209 169.759 52.5753 169.759C53.2525 169.759 53.82 169.901 54.2776 170.185C54.7352 170.469 55.083 170.848 55.321 171.324C55.559 171.796 55.6779 172.315 55.6779 172.883V173.624C55.6779 174.191 55.5567 174.711 55.3141 175.182C55.0762 175.653 54.7261 176.031 54.2639 176.315C53.8063 176.594 53.2434 176.733 52.5753 176.733C51.9071 176.733 51.342 176.592 50.8798 176.308C50.4221 176.02 50.0744 175.642 49.8364 175.175C49.603 174.704 49.4863 174.187 49.4863 173.624ZM51.4976 172.883V173.624C51.4976 173.958 51.5754 174.267 51.7309 174.551C51.8911 174.834 52.1726 174.976 52.5753 174.976C52.9963 174.976 53.2823 174.834 53.4333 174.551C53.5889 174.267 53.6667 173.958 53.6667 173.624V172.883C53.6667 172.549 53.5935 172.237 53.447 171.949C53.3006 171.661 53.01 171.517 52.5753 171.517C52.168 171.517 51.8865 171.663 51.7309 171.956C51.5754 172.249 51.4976 172.558 51.4976 172.883ZM50.3924 184.305L60.0574 170.247H61.8558L52.1909 184.305H50.3924Z" fill="#0A1B27"/>
<path d="M165.118 195.543C164.092 195.543 163.179 195.366 162.379 195.014C161.582 194.657 160.953 194.168 160.491 193.545C160.033 192.918 159.798 192.195 159.784 191.376H162.777C162.795 191.719 162.907 192.021 163.113 192.282C163.324 192.538 163.603 192.737 163.951 192.879C164.298 193.021 164.69 193.092 165.124 193.092C165.577 193.092 165.978 193.012 166.326 192.852C166.673 192.692 166.946 192.47 167.142 192.186C167.339 191.902 167.438 191.575 167.438 191.204C167.438 190.829 167.332 190.497 167.122 190.209C166.916 189.916 166.619 189.687 166.23 189.523C165.845 189.358 165.388 189.276 164.857 189.276H163.546V187.093H164.857C165.305 187.093 165.701 187.015 166.044 186.859C166.392 186.704 166.662 186.489 166.854 186.214C167.046 185.935 167.142 185.61 167.142 185.239C167.142 184.887 167.058 184.578 166.889 184.313C166.724 184.043 166.49 183.832 166.188 183.681C165.891 183.53 165.543 183.455 165.145 183.455C164.742 183.455 164.374 183.528 164.04 183.674C163.706 183.816 163.438 184.02 163.237 184.285C163.035 184.551 162.928 184.862 162.914 185.219H160.065C160.079 184.409 160.31 183.695 160.759 183.077C161.207 182.459 161.811 181.976 162.571 181.629C163.335 181.276 164.198 181.1 165.159 181.1C166.129 181.1 166.978 181.276 167.705 181.629C168.433 181.981 168.998 182.457 169.401 183.056C169.808 183.651 170.009 184.319 170.005 185.061C170.009 185.848 169.765 186.505 169.27 187.031C168.781 187.557 168.142 187.891 167.355 188.033V188.143C168.39 188.276 169.177 188.635 169.717 189.221C170.261 189.802 170.531 190.529 170.527 191.403C170.531 192.204 170.3 192.916 169.833 193.538C169.371 194.161 168.733 194.65 167.918 195.007C167.104 195.364 166.17 195.543 165.118 195.543ZM178.779 181.292V195.35H175.807V184.114H175.725L172.505 186.132V183.496L175.985 181.292H178.779ZM189.815 192.715V191.973C189.815 191.41 189.934 190.893 190.172 190.422C190.415 189.946 190.765 189.566 191.223 189.282C191.685 188.994 192.248 188.85 192.911 188.85C193.584 188.85 194.149 188.992 194.607 189.276C195.069 189.559 195.417 189.939 195.65 190.415C195.888 190.886 196.007 191.406 196.007 191.973V192.715C196.007 193.277 195.888 193.797 195.65 194.273C195.412 194.744 195.062 195.122 194.6 195.405C194.138 195.694 193.575 195.838 192.911 195.838C192.238 195.838 191.673 195.694 191.216 195.405C190.758 195.122 190.41 194.744 190.172 194.273C189.934 193.797 189.815 193.277 189.815 192.715ZM191.813 191.973V192.715C191.813 193.039 191.891 193.346 192.046 193.634C192.206 193.923 192.495 194.067 192.911 194.067C193.328 194.067 193.611 193.925 193.762 193.641C193.918 193.358 193.996 193.049 193.996 192.715V191.973C193.996 191.639 193.923 191.328 193.776 191.04C193.63 190.751 193.341 190.607 192.911 190.607C192.499 190.607 192.213 190.751 192.053 191.04C191.893 191.328 191.813 191.639 191.813 191.973ZM182.601 184.67V183.928C182.601 183.361 182.722 182.841 182.965 182.37C183.207 181.894 183.557 181.514 184.015 181.231C184.477 180.947 185.036 180.805 185.69 180.805C186.367 180.805 186.935 180.947 187.392 181.231C187.85 181.514 188.198 181.894 188.436 182.37C188.674 182.841 188.793 183.361 188.793 183.928V184.67C188.793 185.237 188.671 185.756 188.429 186.228C188.191 186.699 187.841 187.077 187.379 187.36C186.921 187.64 186.358 187.779 185.69 187.779C185.022 187.779 184.457 187.637 183.994 187.354C183.537 187.065 183.189 186.688 182.951 186.221C182.718 185.75 182.601 185.232 182.601 184.67ZM184.612 183.928V184.67C184.612 185.004 184.69 185.313 184.846 185.596C185.006 185.88 185.287 186.022 185.69 186.022C186.111 186.022 186.397 185.88 186.548 185.596C186.704 185.313 186.781 185.004 186.781 184.67V183.928C186.781 183.594 186.708 183.283 186.562 182.995C186.415 182.706 186.125 182.562 185.69 182.562C185.283 182.562 185.001 182.709 184.846 183.002C184.69 183.294 184.612 183.603 184.612 183.928ZM183.507 195.35L193.172 181.292H194.97L185.306 195.35H183.507Z" fill="#0A1B27"/>
<g filter="url(#filter2_bd_416_1438)">
<rect x="183.635" y="17.0459" width="88.3655" height="52.467" rx="13.8071" fill="white" fill-opacity="0.9" shape-rendering="crispEdges"/>
</g>
<path d="M203.393 52.0916V49.7264L209.668 43.5749C210.268 42.9689 210.769 42.4306 211.169 41.9599C211.569 41.4892 211.869 41.0332 212.069 40.5919C212.269 40.1506 212.369 39.6799 212.369 39.1798C212.369 38.6091 212.24 38.1207 211.981 37.7148C211.722 37.3029 211.366 36.9852 210.913 36.7616C210.46 36.538 209.945 36.4262 209.368 36.4262C208.774 36.4262 208.253 36.5498 207.806 36.7969C207.359 37.0381 207.012 37.3823 206.765 37.8295C206.523 38.2767 206.403 38.8091 206.403 39.4269H203.287C203.287 38.2796 203.549 37.2823 204.073 36.4351C204.597 35.5878 205.317 34.9318 206.235 34.467C207.159 34.0021 208.218 33.7697 209.412 33.7697C210.624 33.7697 211.689 33.9963 212.607 34.4493C213.525 34.9024 214.237 35.5231 214.743 36.3115C215.255 37.0999 215.511 38.0001 215.511 39.0121C215.511 39.6888 215.381 40.3536 215.123 41.0067C214.864 41.6598 214.408 42.3835 213.755 43.1778C213.107 43.9721 212.198 44.9341 211.027 46.0638L207.912 49.2321V49.3557H215.784V52.0916H203.393ZM225.316 52.3387C224.045 52.3387 222.916 52.121 221.927 51.6856C220.944 51.2502 220.168 50.6442 219.597 49.8676C219.026 49.0909 218.723 48.1937 218.688 47.1758H222.006C222.036 47.6641 222.198 48.0907 222.492 48.4555C222.786 48.8144 223.177 49.0939 223.666 49.2939C224.154 49.494 224.701 49.594 225.307 49.594C225.954 49.594 226.528 49.4822 227.028 49.2586C227.528 49.0291 227.92 48.7114 228.202 48.3054C228.484 47.8995 228.623 47.4317 228.617 46.9022C228.623 46.355 228.482 45.8725 228.193 45.4548C227.905 45.037 227.487 44.7105 226.94 44.4752C226.399 44.2398 225.746 44.1221 224.981 44.1221H223.383V41.598H224.981C225.61 41.598 226.16 41.4892 226.631 41.2715C227.108 41.0538 227.481 40.7478 227.752 40.3536C228.023 39.9535 228.155 39.4916 228.149 38.968C228.155 38.4561 228.04 38.0119 227.805 37.6353C227.575 37.2529 227.249 36.9558 226.825 36.744C226.407 36.5321 225.916 36.4262 225.351 36.4262C224.798 36.4262 224.286 36.5263 223.816 36.7263C223.345 36.9264 222.966 37.2117 222.677 37.5824C222.389 37.9472 222.236 38.3826 222.218 38.8886H219.068C219.091 37.8766 219.382 36.9881 219.941 36.2232C220.506 35.4525 221.259 34.8523 222.201 34.4228C223.142 33.9874 224.198 33.7697 225.369 33.7697C226.575 33.7697 227.622 33.9963 228.511 34.4493C229.405 34.8965 230.097 35.4996 230.585 36.2586C231.073 37.0175 231.317 37.856 231.317 38.7738C231.323 39.7917 231.023 40.6449 230.417 41.3332C229.817 42.0216 229.029 42.4717 228.052 42.6836V42.8248C229.323 43.0013 230.297 43.472 230.973 44.2369C231.656 44.9959 231.994 45.9402 231.988 47.0699C231.988 48.0819 231.7 48.988 231.123 49.7881C230.553 50.5824 229.764 51.2061 228.758 51.6592C227.758 52.1122 226.61 52.3387 225.316 52.3387ZM244.682 48.7026V47.7494C244.682 47.0493 244.829 46.405 245.123 45.8166C245.423 45.2283 245.858 44.7546 246.429 44.3957C247 44.0368 247.691 43.8574 248.503 43.8574C249.339 43.8574 250.039 44.0368 250.604 44.3957C251.168 44.7487 251.595 45.2194 251.883 45.8078C252.177 46.3962 252.325 47.0434 252.325 47.7494V48.7026C252.325 49.4028 252.177 50.047 251.883 50.6354C251.589 51.2238 251.157 51.6974 250.586 52.0563C250.021 52.4152 249.327 52.5947 248.503 52.5947C247.679 52.5947 246.982 52.4152 246.411 52.0563C245.841 51.6974 245.408 51.2238 245.114 50.6354C244.826 50.047 244.682 49.4028 244.682 48.7026ZM246.985 47.7494V48.7026C246.985 49.1674 247.097 49.594 247.32 49.9823C247.544 50.3706 247.938 50.5648 248.503 50.5648C249.074 50.5648 249.465 50.3736 249.677 49.9911C249.895 49.6028 250.003 49.1733 250.003 48.7026V47.7494C250.003 47.2787 249.9 46.8492 249.694 46.4609C249.489 46.0667 249.091 45.8696 248.503 45.8696C247.95 45.8696 247.559 46.0667 247.329 46.4609C247.1 46.8492 246.985 47.2787 246.985 47.7494ZM235.494 38.359V37.4059C235.494 36.6998 235.644 36.0526 235.944 35.4642C236.244 34.8759 236.68 34.4052 237.25 34.0522C237.821 33.6933 238.512 33.5138 239.324 33.5138C240.154 33.5138 240.851 33.6933 241.416 34.0522C241.987 34.4052 242.416 34.8759 242.705 35.4642C242.993 36.0526 243.137 36.6998 243.137 37.4059V38.359C243.137 39.0651 242.99 39.7123 242.696 40.3007C242.408 40.8831 241.978 41.3509 241.407 41.7039C240.837 42.0569 240.142 42.2335 239.324 42.2335C238.495 42.2335 237.795 42.0569 237.224 41.7039C236.659 41.3509 236.23 40.8802 235.935 40.2918C235.641 39.7035 235.494 39.0592 235.494 38.359ZM237.815 37.4059V38.359C237.815 38.8297 237.924 39.2592 238.142 39.6476C238.365 40.03 238.76 40.2212 239.324 40.2212C239.889 40.2212 240.278 40.03 240.489 39.6476C240.707 39.2592 240.816 38.8297 240.816 38.359V37.4059C240.816 36.9352 240.713 36.5057 240.507 36.1173C240.301 35.7231 239.907 35.526 239.324 35.526C238.765 35.526 238.374 35.7231 238.151 36.1173C237.927 36.5115 237.815 36.9411 237.815 37.4059ZM236.5 52.0916L248.927 34.0169H251.133L238.707 52.0916H236.5Z" fill="#031420"/>
<defs>
<filter id="filter0_bd_416_1438" x="67.6551" y="109.554" width="113.218" height="113.218" filterUnits="userSpaceOnUse" color-interpolation-filters="sRGB">
<feFlood flood-opacity="0" result="BackgroundImageFix"/>
<feGaussianBlur in="BackgroundImageFix" stdDeviation="2.76142"/>
<feComposite in2="SourceAlpha" operator="in" result="effect1_backgroundBlur_416_1438"/>
<feColorMatrix in="SourceAlpha" type="matrix" values="0 0 0 0 0 0 0 0 0 0 0 0 0 0 0 0 0 0 127 0" result="hardAlpha"/>
<feMorphology radius="4.14213" operator="erode" in="SourceAlpha" result="effect2_dropShadow_416_1438"/>
<feOffset dy="8.28426"/>
<feGaussianBlur stdDeviation="17.2589"/>
<feComposite in2="hardAlpha" operator="out"/>
<feColorMatrix type="matrix" values="0 0 0 0 0 0 0 0 0 0 0 0 0 0 0 0 0 0 0.25 0"/>
<feBlend mode="normal" in2="effect1_backgroundBlur_416_1438" result="effect2_dropShadow_416_1438"/>
<feBlend mode="normal" in="SourceGraphic" in2="effect2_dropShadow_416_1438" result="shape"/>
</filter>
<filter id="filter1_bd_416_1438" x="78.7005" y="120.599" width="91.1268" height="91.1269" filterUnits="userSpaceOnUse" color-interpolation-filters="sRGB">
<feFlood flood-opacity="0" result="BackgroundImageFix"/>
<feGaussianBlur in="BackgroundImageFix" stdDeviation="2.76142"/>
<feComposite in2="SourceAlpha" operator="in" result="effect1_backgroundBlur_416_1438"/>
<feColorMatrix in="SourceAlpha" type="matrix" values="0 0 0 0 0 0 0 0 0 0 0 0 0 0 0 0 0 0 127 0" result="hardAlpha"/>
<feMorphology radius="4.14213" operator="erode" in="SourceAlpha" result="effect2_dropShadow_416_1438"/>
<feOffset dy="8.28426"/>
<feGaussianBlur stdDeviation="17.2589"/>
<feComposite in2="hardAlpha" operator="out"/>
<feColorMatrix type="matrix" values="0 0 0 0 0 0 0 0 0 0 0 0 0 0 0 0 0 0 0.25 0"/>
<feBlend mode="normal" in2="effect1_backgroundBlur_416_1438" result="effect2_dropShadow_416_1438"/>
<feBlend mode="normal" in="SourceGraphic" in2="effect2_dropShadow_416_1438" result="shape"/>
</filter>
<filter id="filter2_bd_416_1438" x="160.163" y="0.477374" width="129.787" height="93.8883" filterUnits="userSpaceOnUse" color-interpolation-filters="sRGB">
<feFlood flood-opacity="0" result="BackgroundImageFix"/>
<feGaussianBlur in="BackgroundImageFix" stdDeviation="1.38071"/>
<feComposite in2="SourceAlpha" operator="in" result="effect1_backgroundBlur_416_1438"/>
<feColorMatrix in="SourceAlpha" type="matrix" values="0 0 0 0 0 0 0 0 0 0 0 0 0 0 0 0 0 0 127 0" result="hardAlpha"/>
<feOffset dx="-2.76142" dy="4.14213"/>
<feGaussianBlur stdDeviation="10.3553"/>
<feComposite in2="hardAlpha" operator="out"/>
<feColorMatrix type="matrix" values="0 0 0 0 0 0 0 0 0 0 0 0 0 0 0 0 0 0 0.2 0"/>
<feBlend mode="normal" in2="effect1_backgroundBlur_416_1438" result="effect2_dropShadow_416_1438"/>
<feBlend mode="normal" in="SourceGraphic" in2="effect2_dropShadow_416_1438" result="shape"/>
</filter>
<linearGradient id="paint0_linear_416_1438" x1="124.264" y1="157.878" x2="206.76" y2="234.176" gradientUnits="userSpaceOnUse">
<stop stop-color="#89FFE4"/>
<stop offset="1" stop-color="#23D7AD"/>
</linearGradient>
<linearGradient id="paint1_linear_416_1438" x1="180.458" y1="210.939" x2="64.4852" y2="327.943" gradientUnits="userSpaceOnUse">
<stop stop-color="#FDED92"/>
<stop offset="1" stop-color="#EC4BA8"/>
</linearGradient>
<linearGradient id="paint2_linear_416_1438" x1="143.431" y1="101.816" x2="229.184" y2="148.608" gradientUnits="userSpaceOnUse">
<stop stop-color="#FEF392"/>
<stop offset="1" stop-color="#9FFEE9"/>
</linearGradient>
<linearGradient id="paint3_linear_416_1438" x1="221.98" y1="130.581" x2="138.654" y2="13.5989" gradientUnits="userSpaceOnUse">
<stop stop-color="#FDED92"/>
<stop offset="1" stop-color="#EC4BA8"/>
</linearGradient>
<linearGradient id="paint4_linear_416_1438" x1="173.304" y1="64.1542" x2="238.866" y2="145.822" gradientUnits="userSpaceOnUse">
<stop stop-color="#24D9AE"/>
<stop offset="1" stop-color="#FBF392"/>
</linearGradient>
</defs>
</svg>
