<svg width="151" height="42" viewBox="0 0 151 42" fill="none" xmlns="http://www.w3.org/2000/svg">
<path d="M40.3912 31V10.1382H48.3773C49.8849 10.1382 51.1379 10.3759 52.1361 10.8512C53.1412 11.3198 53.8916 11.9615 54.3873 12.7765C54.8899 13.5914 55.1411 14.5149 55.1411 15.5472C55.1411 16.396 54.9781 17.1227 54.6522 17.7271C54.3262 18.3247 53.8882 18.8102 53.3381 19.1837C52.7881 19.5572 52.1735 19.8255 51.4944 19.9885V20.1922C52.2346 20.2329 52.9442 20.4604 53.6233 20.8747C54.3092 21.2821 54.8695 21.8594 55.3041 22.6064C55.7387 23.3534 55.956 24.2566 55.956 25.316C55.956 26.3957 55.6946 27.3668 55.1717 28.2293C54.6488 29.0849 53.861 29.7606 52.8084 30.2564C51.7558 30.7521 50.4316 31 48.8357 31H40.3912ZM44.1703 27.8422H48.2347C49.6065 27.8422 50.5946 27.5808 51.199 27.0578C51.8102 26.5282 52.1157 25.8491 52.1157 25.0206C52.1157 24.4026 51.963 23.8457 51.6574 23.35C51.3518 22.8475 50.9171 22.4536 50.3535 22.1684C49.7898 21.8763 49.1175 21.7303 48.3366 21.7303H44.1703V27.8422ZM44.1703 19.0106H47.9087C48.5607 19.0106 49.1481 18.8917 49.671 18.654C50.1939 18.4096 50.6048 18.0666 50.9036 17.6252C51.2092 17.177 51.362 16.6473 51.362 16.0361C51.362 15.228 51.0767 14.5625 50.5063 14.0396C49.9426 13.5167 49.104 13.2552 47.9902 13.2552H44.1703V19.0106ZM66.0075 31.3056C64.4388 31.3056 63.084 30.9796 61.9431 30.3277C60.809 29.669 59.9364 28.7386 59.3252 27.5366C58.714 26.3278 58.4084 24.9051 58.4084 23.2685C58.4084 21.659 58.714 20.2465 59.3252 19.0309C59.9432 17.8086 60.8056 16.8578 61.9126 16.1787C63.0195 15.4928 64.32 15.1499 65.814 15.1499C66.7783 15.1499 67.6883 15.3061 68.5439 15.6185C69.4064 15.9241 70.167 16.3994 70.8257 17.0446C71.4912 17.6897 72.0141 18.5114 72.3944 19.5097C72.7747 20.5012 72.9648 21.6828 72.9648 23.0546V24.1853H60.1401V21.6998H69.4301C69.4234 20.9935 69.2706 20.3654 68.9718 19.8153C68.673 19.2584 68.2553 18.8204 67.7188 18.5012C67.1891 18.1821 66.5712 18.0225 65.8649 18.0225C65.1111 18.0225 64.449 18.2058 63.8785 18.5725C63.3081 18.9325 62.8633 19.4078 62.5441 19.9986C62.2317 20.5827 62.0721 21.2244 62.0654 21.9239V24.0936C62.0654 25.0036 62.2317 25.7845 62.5645 26.4365C62.8972 27.0816 63.3624 27.5774 63.96 27.9237C64.5576 28.2632 65.2571 28.433 66.0584 28.433C66.5949 28.433 67.0805 28.3583 67.5151 28.2089C67.9497 28.0527 68.3266 27.8252 68.6458 27.5264C68.965 27.2276 69.206 26.8575 69.369 26.4161L72.812 26.8032C72.5947 27.7132 72.1805 28.5077 71.5693 29.1868C70.9649 29.8591 70.1907 30.382 69.2468 30.7555C68.3028 31.1222 67.2231 31.3056 66.0075 31.3056ZM83.8974 15.3536V18.2058H74.9028V15.3536H83.8974ZM77.1235 11.605H80.8109V26.2939C80.8109 26.7896 80.8856 27.1699 81.035 27.4347C81.1912 27.6928 81.395 27.8694 81.6462 27.9644C81.8975 28.0595 82.1759 28.1071 82.4815 28.1071C82.7124 28.1071 82.9229 28.0901 83.1131 28.0561C83.31 28.0222 83.4594 27.9916 83.5613 27.9644L84.1827 30.8472C83.9857 30.9151 83.7039 30.9898 83.3372 31.0713C82.9773 31.1528 82.5359 31.2003 82.0129 31.2139C81.0894 31.2411 80.2575 31.1019 79.5173 30.7963C78.7771 30.4839 78.1896 30.0017 77.755 29.3498C77.3272 28.6979 77.1167 27.8829 77.1235 26.9051V11.605ZM94.7944 15.3536V18.2058H85.7998V15.3536H94.7944ZM88.0204 11.605H91.7079V26.2939C91.7079 26.7896 91.7826 27.1699 91.932 27.4347C92.0882 27.6928 92.2919 27.8694 92.5432 27.9644C92.7944 28.0595 93.0729 28.1071 93.3785 28.1071C93.6094 28.1071 93.8199 28.0901 94.01 28.0561C94.207 28.0222 94.3564 27.9916 94.4582 27.9644L95.0796 30.8472C94.8827 30.9151 94.6008 30.9898 94.2341 31.0713C93.8742 31.1528 93.4328 31.2003 92.9099 31.2139C91.9863 31.2411 91.1544 31.1019 90.4142 30.7963C89.674 30.4839 89.0866 30.0017 88.652 29.3498C88.2241 28.6979 88.0136 27.8829 88.0204 26.9051V11.605ZM104.535 31.3056C103.007 31.3056 101.683 30.9694 100.562 30.2971C99.4419 29.6248 98.5727 28.6843 97.9547 27.4755C97.3435 26.2667 97.0379 24.8542 97.0379 23.2379C97.0379 21.6217 97.3435 20.2058 97.9547 18.9902C98.5727 17.7746 99.4419 16.8307 100.562 16.1584C101.683 15.4861 103.007 15.1499 104.535 15.1499C106.063 15.1499 107.387 15.4861 108.508 16.1584C109.628 16.8307 110.494 17.7746 111.105 18.9902C111.723 20.2058 112.032 21.6217 112.032 23.2379C112.032 24.8542 111.723 26.2667 111.105 27.4755C110.494 28.6843 109.628 29.6248 108.508 30.2971C107.387 30.9694 106.063 31.3056 104.535 31.3056ZM104.556 28.3515C105.384 28.3515 106.077 28.124 106.634 27.669C107.19 27.2072 107.605 26.5893 107.876 25.8151C108.155 25.0409 108.294 24.1785 108.294 23.2277C108.294 22.2702 108.155 21.4044 107.876 20.6302C107.605 19.8492 107.19 19.2279 106.634 18.7661C106.077 18.3043 105.384 18.0734 104.556 18.0734C103.707 18.0734 103 18.3043 102.437 18.7661C101.88 19.2279 101.462 19.8492 101.184 20.6302C100.912 21.4044 100.776 22.2702 100.776 23.2277C100.776 24.1785 100.912 25.0409 101.184 25.8151C101.462 26.5893 101.88 27.2072 102.437 27.669C103 28.124 103.707 28.3515 104.556 28.3515ZM117.434 31.2241C116.816 31.2241 116.286 31.0068 115.845 30.5722C115.403 30.1375 115.186 29.6079 115.193 28.9831C115.186 28.3719 115.403 27.849 115.845 27.4144C116.286 26.9798 116.816 26.7624 117.434 26.7624C118.031 26.7624 118.551 26.9798 118.992 27.4144C119.44 27.849 119.668 28.3719 119.675 28.9831C119.668 29.3973 119.559 29.7742 119.349 30.1138C119.145 30.4533 118.873 30.725 118.534 30.9287C118.201 31.1256 117.834 31.2241 117.434 31.2241ZM126.324 31H122.29L129.635 10.1382H134.3L141.655 31H137.621L132.049 14.4165H131.886L126.324 31ZM126.456 22.8203H137.458V25.8558H126.456V22.8203ZM144.351 31V15.3536H148.039V31H144.351ZM146.205 13.133C145.621 13.133 145.119 12.9394 144.698 12.5524C144.277 12.1585 144.066 11.6865 144.066 11.1364C144.066 10.5796 144.277 10.1076 144.698 9.72053C145.119 9.32665 145.621 9.12971 146.205 9.12971C146.796 9.12971 147.299 9.32665 147.713 9.72053C148.134 10.1076 148.344 10.5796 148.344 11.1364C148.344 11.6865 148.134 12.1585 147.713 12.5524C147.299 12.9394 146.796 13.133 146.205 13.133Z" fill="white"/>
<path d="M10.9447 33.0092C8.34645 31.3502 6.53026 29.0985 5.55901 26.1954C4.62818 23.4111 4.68432 20.6223 5.63985 17.8509C5.98737 17.9872 6.30906 18.1245 6.63918 18.2382C6.91259 18.3328 7.19442 18.4054 7.47569 18.4752C7.59078 18.504 7.63232 18.5495 7.6312 18.6723C7.62503 19.3478 7.63008 20.0233 7.62615 20.6989C7.62559 20.8013 7.6559 20.8734 7.72833 20.9454C8.64288 21.8591 9.55406 22.7761 10.4686 23.6898C10.545 23.7658 10.5719 23.8322 10.5528 23.9465C10.4506 24.5578 10.8874 25.1365 11.5117 25.2333C12.1287 25.329 12.7092 24.8989 12.8024 24.2775C12.8962 23.6543 12.4712 23.0683 11.8547 22.9821C11.7318 22.9652 11.6038 22.9883 11.4786 22.981C11.4202 22.9776 11.3467 22.9636 11.3085 22.9258C10.4849 22.1068 9.66522 21.2837 8.84667 20.459C8.80737 20.4196 8.76807 20.3572 8.76751 20.3054C8.76246 19.7987 8.76526 19.2921 8.76639 18.7854C8.76639 18.7719 8.77312 18.759 8.78323 18.7212C8.98197 18.7455 9.18521 18.7612 9.38451 18.7961C11.5314 19.1733 13.2044 20.2986 14.4783 22.0505C14.5557 22.1569 14.5911 22.2672 14.5911 22.4017C14.5872 24.1705 14.5872 25.9387 14.5894 27.7075C14.5894 27.8257 14.5591 27.9022 14.4603 27.9771C13.9281 28.3796 13.8624 29.1536 14.3104 29.6445C14.759 30.1354 15.5236 30.1382 15.9851 29.6507C16.4365 29.1739 16.3831 28.4032 15.8621 27.9912C15.7594 27.9096 15.7195 27.8302 15.7201 27.6996C15.724 25.9218 15.7207 24.144 15.7257 22.3657C15.7263 22.2655 15.7588 22.1484 15.8161 22.0679C17.031 20.3707 18.6361 19.2605 20.6898 18.8333C20.9407 18.7809 21.1984 18.759 21.4527 18.7241C21.4752 18.7212 21.4982 18.7258 21.537 18.7274C21.5409 18.7798 21.5476 18.8293 21.5476 18.8789C21.5482 19.3337 21.5527 19.7891 21.5431 20.244C21.5414 20.3222 21.501 20.4179 21.446 20.4737C20.6398 21.2899 19.8263 22.1 19.019 22.9151C18.9443 22.9906 18.8736 22.9934 18.781 22.9793C18.2684 22.9028 17.7771 23.1837 17.5801 23.6599C17.3769 24.1514 17.5273 24.7053 17.9489 25.0194C18.3543 25.3217 18.9449 25.3178 19.3334 24.9958C19.6674 24.7188 19.819 24.3591 19.7443 23.9222C19.7275 23.8237 19.7584 23.7657 19.8229 23.7016C20.7201 22.8037 21.6139 21.9019 22.5149 21.0079C22.6317 20.8919 22.6778 20.7771 22.6761 20.615C22.6677 19.9727 22.6772 19.3298 22.6682 18.6869C22.666 18.5389 22.7182 18.4859 22.8563 18.4544C23.4368 18.3216 23.9993 18.1335 24.5355 17.8695C24.5641 17.8554 24.595 17.847 24.6517 17.8262C25.5713 20.4765 25.6628 23.1403 24.8516 25.8171C23.923 28.8801 22.0697 31.2461 19.3598 32.9946C19.3519 32.9107 19.3435 32.8634 19.3435 32.8156C19.3424 31.8119 19.3407 30.8076 19.3463 29.8038C19.3469 29.7295 19.3828 29.6361 19.4344 29.5837C20.0279 28.978 20.6286 28.3796 21.2242 27.7767C21.2871 27.7131 21.3455 27.6973 21.4337 27.712C22.0523 27.8139 22.6317 27.3978 22.73 26.7887C22.8327 26.1526 22.4167 25.5627 21.798 25.467C21.1664 25.369 20.5865 25.7867 20.4888 26.4161C20.4719 26.5258 20.4663 26.6452 20.491 26.7516C20.518 26.8675 20.4781 26.9334 20.4029 27.0083C19.7129 27.6956 19.0269 28.388 18.3352 29.0737C18.2397 29.1683 18.2061 29.264 18.2066 29.3951C18.21 30.7462 18.2066 32.0973 18.2111 33.4483C18.2117 33.5806 18.169 33.647 18.05 33.7022C17.1585 34.1143 16.2344 34.4267 15.2721 34.6215C15.1879 34.6384 15.0941 34.6367 15.0094 34.6198C14.046 34.4273 13.1241 34.1086 12.2326 33.6983C12.1287 33.6504 12.0917 33.5907 12.0917 33.4753C12.0956 32.1147 12.0917 30.7546 12.0962 29.394C12.0967 29.2606 12.0574 29.1672 11.9642 29.0743C11.2697 28.3847 10.5803 27.6894 9.88754 26.9982C9.82354 26.9345 9.79322 26.8788 9.80894 26.7797C9.88978 26.2736 9.64051 25.7923 9.19812 25.5762C8.75179 25.3583 8.21676 25.4478 7.87654 25.798C7.53127 26.1532 7.45099 26.6902 7.6778 27.1265C7.90854 27.5701 8.38519 27.802 8.89046 27.7243C8.9438 27.7159 9.02127 27.739 9.05945 27.7767C9.67195 28.383 10.28 28.9938 10.8863 29.6063C10.925 29.6451 10.9593 29.7098 10.9593 29.7627C10.9632 30.8138 10.9621 31.8642 10.961 32.9152C10.9598 32.9338 10.9542 32.9524 10.9447 33.0092Z" fill="#24D9AE"/>
<path d="M15.1442 21.0457C15.0915 20.9832 15.0499 20.9337 15.0084 20.8847C13.6941 19.3282 12.0761 18.2513 10.0842 17.7829C9.59463 17.6681 9.0871 17.6293 8.588 17.5533C7.79865 17.4328 7.02783 17.2453 6.3064 16.8918C5.59565 16.5439 4.99999 16.0699 4.65584 15.3319C4.40432 14.792 4.33527 14.2195 4.36951 13.6301C4.37007 13.6172 4.3785 13.6048 4.39422 13.562C5.38456 14.7115 6.60901 15.422 8.10294 15.6162C9.59631 15.8104 10.9594 15.4428 12.1957 14.5764C12.8486 16.2315 13.8204 17.6506 15.1448 18.8441C16.4664 17.658 17.4416 16.2382 18.0973 14.5714C19.3234 15.4355 20.6894 15.807 22.1867 15.6145C23.68 15.4225 24.905 14.7194 25.8915 13.5676C25.9083 13.5992 25.9223 13.6132 25.9235 13.6284C25.974 14.4909 25.8095 15.2925 25.234 15.9675C24.8208 16.4521 24.2914 16.7741 23.7115 17.0202C22.889 17.3692 22.0233 17.5403 21.1413 17.6304C19.8057 17.7672 18.5908 18.2322 17.4663 18.9527C16.6202 19.4948 15.8775 20.154 15.2425 20.9348C15.2155 20.9658 15.1875 20.9962 15.1442 21.0457Z" fill="#24D9AE"/>
<path d="M27.7879 29.8169C27.6194 29.5861 27.4797 29.388 27.3331 29.1943C26.8335 28.5357 26.2816 27.9249 25.6691 27.3698C25.5804 27.2899 25.5697 27.2229 25.6113 27.1154C26.2445 25.4536 26.5516 23.7315 26.5297 21.9538C26.5101 20.3691 26.2305 18.83 25.6713 17.3455C25.6253 17.2228 25.6354 17.1485 25.7376 17.0562C26.5443 16.3249 26.9542 15.3995 27.0434 14.3226C27.0614 14.1086 27.0648 13.8936 27.0928 13.6724C28.7311 15.5137 29.7803 17.6456 30.1621 20.0848C30.7185 23.642 29.8982 26.8727 27.7879 29.8169Z" fill="#24D9AE"/>
<path d="M3.27011 13.7055C3.27011 13.9099 3.25832 14.1153 3.27235 14.3191C3.34702 15.4118 3.78268 16.335 4.58888 17.0764C4.67421 17.1547 4.69611 17.2177 4.654 17.3286C4.06451 18.8896 3.7838 20.5058 3.7883 22.1744C3.79279 23.8812 4.09876 25.5312 4.70677 27.1243C4.74832 27.233 4.73541 27.2983 4.64839 27.3776C3.88823 28.0717 3.21621 28.8441 2.62897 29.6908C2.60595 29.724 2.579 29.7549 2.53746 29.8073C0.837485 27.4773 -0.033274 24.89 0.00097246 22.0213C0.0385874 18.8536 1.1356 16.0806 3.2033 13.6948C3.22519 13.6982 3.24765 13.7021 3.27011 13.7055Z" fill="#24D9AE"/>
<path d="M21.8466 7.16975C22.3059 7.08081 22.7241 7.02283 23.1289 6.91587C23.5662 6.80047 23.9929 6.64453 24.4207 6.49479C24.5246 6.4582 24.5914 6.46608 24.6683 6.54208C25.6682 7.52835 26.1684 8.72516 26.0853 10.1274C25.9815 11.881 25.1276 13.1943 23.5865 14.0213C21.2442 15.2783 18.2305 14.1862 17.2172 11.7268C17.1515 11.5674 17.1756 11.3575 17.2003 11.1768C17.3283 10.2395 17.7516 9.44403 18.3945 8.7595C18.4074 8.74599 18.422 8.7336 18.4371 8.72347C18.4439 8.71897 18.4545 8.72178 18.4809 8.72009C18.3114 9.45642 18.4562 10.1274 18.9098 10.7236C19.2383 11.1548 19.6717 11.4363 20.1983 11.5725C21.2122 11.8348 22.2963 11.3777 22.8224 10.4601C23.157 9.87637 23.2227 9.25432 23.0413 8.61201C22.8594 7.97251 22.4479 7.50808 21.8466 7.16975Z" fill="#24D9AE"/>
<path d="M11.8814 8.72521C11.9027 8.74098 11.9274 8.75336 11.9448 8.77194C12.6488 9.53191 13.08 10.4163 13.1513 11.4605C13.1575 11.554 13.1372 11.6581 13.1002 11.7448C12.3496 13.5001 10.5463 14.6226 8.64366 14.5229C6.44908 14.4081 4.64468 12.8184 4.29941 10.6415C4.04621 9.04553 4.5251 7.66914 5.67264 6.52975C5.72429 6.47852 5.76752 6.43799 5.85341 6.47571C6.6394 6.82135 7.46805 7.00656 8.31411 7.12309C8.34667 7.12759 8.37867 7.13266 8.41067 7.13941C8.41853 7.1411 8.4247 7.14955 8.45109 7.16925C7.87339 7.49575 7.46749 7.96299 7.27941 8.59743C7.09022 9.23524 7.16208 9.85053 7.48826 10.4315C7.9941 11.3322 9.01868 11.8006 10.0163 11.5934C10.3318 11.5281 10.6227 11.4054 10.8882 11.2219C11.1498 11.0412 11.3677 10.8177 11.5378 10.5491C11.7101 10.2772 11.846 9.98395 11.8746 9.66307C11.9027 9.35571 11.8814 9.04384 11.8814 8.72521Z" fill="#24D9AE"/>
<path d="M14.5835 5.99652C12.7982 4.36287 10.6738 3.52972 8.33154 3.15086C9.86927 2.13869 11.5507 1.50426 13.3691 1.25825C16.4659 0.839426 19.3449 1.45922 21.9981 3.14861C19.6542 3.52578 17.5264 4.36399 15.7355 6.00553C15.7305 5.93403 15.7237 5.88055 15.7237 5.82764C15.7226 5.37728 15.7265 4.92693 15.7209 4.47658C15.7192 4.35386 15.7524 4.2728 15.8545 4.19398C16.2868 3.85847 16.412 3.28878 16.1729 2.80409C15.9376 2.32671 15.3981 2.07452 14.8906 2.20512C14.3629 2.34079 14.0047 2.81647 14.0311 3.36083C14.0485 3.71943 14.2096 4.00427 14.4937 4.22382C14.5425 4.26154 14.5953 4.33191 14.5958 4.38764C14.6031 4.89428 14.5998 5.40093 14.5986 5.90701C14.5986 5.9346 14.5897 5.96162 14.5835 5.99652Z" fill="#24D9AE"/>
<path d="M11.4658 35.8706C11.4782 35.838 11.4855 35.8104 11.4984 35.7862C11.6421 35.5126 11.7886 35.2407 11.9296 34.966C11.9851 34.8579 12.0486 34.8545 12.1547 34.9007C13.0889 35.3077 14.0568 35.6055 15.0589 35.7896C15.1167 35.8003 15.1802 35.8025 15.238 35.7918C16.2351 35.6078 17.1996 35.3139 18.1298 34.9097C18.2663 34.8506 18.3393 34.8647 18.4055 34.9981C18.5346 35.2582 18.6778 35.5109 18.8035 35.7721C18.8282 35.8234 18.8249 35.9134 18.7957 35.9624C17.8946 37.4868 16.7128 38.7467 15.2453 39.7369C15.156 39.7972 15.1032 39.76 15.0359 39.7144C13.9344 38.9724 12.9912 38.0633 12.2024 36.9954C11.9632 36.6717 11.7527 36.3272 11.5304 35.9917C11.5046 35.9534 11.4866 35.91 11.4658 35.8706Z" fill="#24D9AE"/>
<path d="M16.1763 10.2851C16.0657 10.0144 15.9349 9.74979 15.8484 9.4717C15.5587 8.53609 15.7833 7.70519 16.3997 6.96662C16.8287 6.45209 17.3614 6.06479 17.9341 5.7304C19.2175 4.98113 20.5946 4.49925 22.0667 4.28815C22.9425 4.16261 23.8189 4.02019 24.6194 3.61769C25.0736 3.38913 25.5048 3.11498 25.9461 2.86053C26.0095 2.82394 26.0696 2.78285 26.169 2.75977C26.1493 2.8898 26.1386 3.0221 26.1094 3.15045C25.9085 4.02807 25.3886 4.67095 24.6357 5.1365C23.9025 5.5891 23.0918 5.81878 22.2514 5.96177C21.6574 6.0631 21.0477 6.1087 20.4728 6.27645C18.4349 6.87035 16.9954 8.13809 16.2757 10.1731C16.2633 10.2075 16.2465 10.2407 16.2319 10.2745C16.2133 10.2778 16.1948 10.2818 16.1763 10.2851Z" fill="#24D9AE"/>
<path d="M14.1085 10.3188C14.0737 10.2383 14.0552 10.2029 14.0423 10.1657C13.4607 8.45718 12.2991 7.29189 10.6788 6.55613C9.96695 6.233 9.20903 6.1069 8.43989 6.01233C7.47706 5.89411 6.54511 5.65937 5.70691 5.14315C4.87545 4.63144 4.33088 3.91538 4.17873 2.92967C4.17256 2.88802 4.16919 2.84579 4.16751 2.80414C4.16694 2.79175 4.17593 2.77937 4.18603 2.75122C4.24105 2.785 4.29326 2.81314 4.34098 2.84692C5.41048 3.60858 6.5962 4.07357 7.89812 4.23569C9.49087 4.43385 10.9904 4.91122 12.3777 5.72748C12.9818 6.08326 13.5437 6.49308 13.9839 7.04927C14.6497 7.8903 14.7688 8.80789 14.3578 9.79585C14.2893 9.96192 14.204 10.1207 14.1085 10.3188Z" fill="#24D9AE"/>
<path d="M15.1822 12.1438C15.4241 12.4331 15.665 12.7067 15.8901 12.9933C16.2584 13.4622 16.5824 13.9615 16.8288 14.507C16.8558 14.5661 16.8608 14.6573 16.8344 14.7147C16.4263 15.607 15.9058 16.4272 15.258 17.1652C15.2305 17.1967 15.2114 17.2356 15.1771 17.2879C15.0778 17.1737 15.0036 17.0909 14.9329 17.0059C14.3625 16.3163 13.8881 15.5659 13.5069 14.7558C13.4609 14.6573 13.4603 14.5785 13.5069 14.4794C13.9094 13.6316 14.4703 12.897 15.1002 12.2102C15.1148 12.1928 15.1356 12.1804 15.1822 12.1438Z" fill="#24D9AE"/>
<path d="M24.1056 34.4466C24.0601 34.3345 24.0152 34.2225 23.9686 34.111C23.639 33.3241 23.2348 32.5821 22.661 31.9432C22.6083 31.8846 22.5959 31.8435 22.6577 31.7793C23.3084 31.1016 23.8866 30.3664 24.3868 29.5704C24.3986 29.5512 24.416 29.5355 24.4452 29.5C24.4755 29.5524 24.5025 29.5923 24.5233 29.6351C24.9269 30.4587 25.0342 31.3324 24.9584 32.2376C24.9101 32.8174 24.8017 33.3815 24.5148 33.8954C24.4065 34.0897 24.2746 34.2709 24.1539 34.4584C24.1381 34.4544 24.1219 34.4505 24.1056 34.4466Z" fill="#24D9AE"/>
<path d="M5.88026 29.4893C6.42764 30.3584 7.03285 31.1359 7.73462 31.8559C7.03678 32.6125 6.57586 33.5008 6.20869 34.4651C6.00321 34.245 5.8623 34.0102 5.74103 33.7625C5.47211 33.2125 5.3879 32.6203 5.35477 32.018C5.30986 31.209 5.42888 30.4294 5.77584 29.6914C5.80278 29.6334 5.83422 29.5776 5.88026 29.4893Z" fill="#24D9AE"/>
<path d="M20.4046 36.8942C20.1457 35.9952 19.8224 35.139 19.353 34.3751C20.0683 33.8887 20.7706 33.4113 21.4713 32.9351C21.9181 33.7327 21.2821 36.1663 20.4046 36.8942Z" fill="#24D9AE"/>
<path d="M8.85051 32.9226C9.55677 33.4017 10.2585 33.8785 10.9732 34.3632C10.4943 35.1237 10.1777 35.9816 9.92563 36.8677C9.13571 36.4584 8.4418 33.8683 8.85051 32.9226Z" fill="#24D9AE"/>
<path d="M21.072 8.95938C21.0743 9.46152 20.6751 9.86346 20.1743 9.86402C19.6758 9.86459 19.2716 9.45814 19.2749 8.95938C19.2777 8.47075 19.6853 8.06599 20.1749 8.06543C20.6656 8.06543 21.0703 8.46793 21.072 8.95938Z" fill="#24D9AE"/>
<path d="M8.94538 9.8601C8.44122 9.85953 8.04486 9.46041 8.04935 8.95827C8.05385 8.46963 8.46424 8.06432 8.95099 8.06938C9.44111 8.07445 9.84308 8.48089 9.8414 8.97009C9.83971 9.46266 9.43942 9.86066 8.94538 9.8601Z" fill="#24D9AE"/>
</svg>
