<svg width="31" height="39" viewBox="0 0 31 39" fill="none" xmlns="http://www.w3.org/2000/svg">
<path d="M10.9447 32.0092C8.34645 30.3502 6.53026 28.0985 5.55901 25.1954C4.62818 22.4111 4.68432 19.6223 5.63985 16.8509C5.98737 16.9872 6.30906 17.1245 6.63918 17.2382C6.91259 17.3328 7.19442 17.4054 7.47569 17.4752C7.59078 17.504 7.63232 17.5495 7.6312 17.6723C7.62503 18.3478 7.63008 19.0233 7.62615 19.6989C7.62559 19.8013 7.6559 19.8734 7.72833 19.9454C8.64288 20.8591 9.55406 21.7761 10.4686 22.6898C10.545 22.7658 10.5719 22.8322 10.5528 22.9465C10.4506 23.5578 10.8874 24.1365 11.5117 24.2333C12.1287 24.329 12.7092 23.8989 12.8024 23.2775C12.8962 22.6543 12.4712 22.0683 11.8547 21.9821C11.7318 21.9652 11.6038 21.9883 11.4786 21.981C11.4202 21.9776 11.3467 21.9636 11.3085 21.9258C10.4849 21.1068 9.66522 20.2837 8.84667 19.459C8.80737 19.4196 8.76807 19.3572 8.76751 19.3054C8.76246 18.7987 8.76526 18.2921 8.76639 17.7854C8.76639 17.7719 8.77312 17.759 8.78323 17.7212C8.98197 17.7455 9.18521 17.7612 9.38451 17.7961C11.5314 18.1733 13.2044 19.2986 14.4783 21.0505C14.5557 21.1569 14.5911 21.2672 14.5911 21.4017C14.5872 23.1705 14.5872 24.9387 14.5894 26.7075C14.5894 26.8257 14.5591 26.9022 14.4603 26.9771C13.9281 27.3796 13.8624 28.1536 14.3104 28.6445C14.759 29.1354 15.5236 29.1382 15.9851 28.6507C16.4365 28.1739 16.3831 27.4032 15.8621 26.9912C15.7594 26.9096 15.7195 26.8302 15.7201 26.6996C15.724 24.9218 15.7207 23.144 15.7257 21.3657C15.7263 21.2655 15.7588 21.1484 15.8161 21.0679C17.031 19.3707 18.6361 18.2605 20.6898 17.8333C20.9407 17.7809 21.1984 17.759 21.4527 17.7241C21.4752 17.7212 21.4982 17.7258 21.537 17.7274C21.5409 17.7798 21.5476 17.8293 21.5476 17.8789C21.5482 18.3337 21.5527 18.7891 21.5431 19.244C21.5414 19.3222 21.501 19.4179 21.446 19.4737C20.6398 20.2899 19.8263 21.1 19.019 21.9151C18.9443 21.9906 18.8736 21.9934 18.781 21.9793C18.2684 21.9028 17.7771 22.1837 17.5801 22.6599C17.3769 23.1514 17.5273 23.7053 17.9489 24.0194C18.3543 24.3217 18.9449 24.3178 19.3334 23.9958C19.6674 23.7188 19.819 23.3591 19.7443 22.9222C19.7275 22.8237 19.7584 22.7657 19.8229 22.7016C20.7201 21.8037 21.6139 20.9019 22.5149 20.0079C22.6317 19.8919 22.6778 19.7771 22.6761 19.615C22.6677 18.9727 22.6772 18.3298 22.6682 17.6869C22.666 17.5389 22.7182 17.4859 22.8563 17.4544C23.4368 17.3216 23.9993 17.1335 24.5355 16.8695C24.5641 16.8554 24.595 16.847 24.6517 16.8262C25.5713 19.4765 25.6628 22.1403 24.8516 24.8171C23.923 27.8801 22.0697 30.2461 19.3598 31.9946C19.3519 31.9107 19.3435 31.8634 19.3435 31.8156C19.3424 30.8119 19.3407 29.8076 19.3463 28.8038C19.3469 28.7295 19.3828 28.6361 19.4344 28.5837C20.0279 27.978 20.6286 27.3796 21.2242 26.7767C21.2871 26.7131 21.3455 26.6973 21.4337 26.712C22.0523 26.8139 22.6317 26.3978 22.73 25.7887C22.8327 25.1526 22.4167 24.5627 21.798 24.467C21.1664 24.369 20.5865 24.7867 20.4888 25.4161C20.4719 25.5258 20.4663 25.6452 20.491 25.7516C20.518 25.8675 20.4781 25.9334 20.4029 26.0083C19.7129 26.6956 19.0269 27.388 18.3352 28.0737C18.2397 28.1683 18.2061 28.264 18.2066 28.3951C18.21 29.7462 18.2066 31.0973 18.2111 32.4483C18.2117 32.5806 18.169 32.647 18.05 32.7022C17.1585 33.1143 16.2344 33.4267 15.2721 33.6215C15.1879 33.6384 15.0941 33.6367 15.0094 33.6198C14.046 33.4273 13.1241 33.1086 12.2326 32.6983C12.1287 32.6504 12.0917 32.5907 12.0917 32.4753C12.0956 31.1147 12.0917 29.7546 12.0962 28.394C12.0967 28.2606 12.0574 28.1672 11.9642 28.0743C11.2697 27.3847 10.5803 26.6894 9.88754 25.9982C9.82354 25.9345 9.79322 25.8788 9.80894 25.7797C9.88978 25.2736 9.64051 24.7923 9.19812 24.5762C8.75179 24.3583 8.21676 24.4478 7.87654 24.798C7.53127 25.1532 7.45099 25.6902 7.6778 26.1265C7.90854 26.5701 8.38519 26.802 8.89046 26.7243C8.9438 26.7159 9.02127 26.739 9.05945 26.7767C9.67195 27.383 10.28 27.9938 10.8863 28.6063C10.925 28.6451 10.9593 28.7098 10.9593 28.7627C10.9632 29.8138 10.9621 30.8642 10.961 31.9152C10.9598 31.9338 10.9542 31.9524 10.9447 32.0092Z" fill="#24D9AE"/>
<path d="M15.1442 20.0457C15.0915 19.9832 15.0499 19.9337 15.0084 19.8847C13.6941 18.3282 12.0761 17.2513 10.0842 16.7829C9.59463 16.6681 9.0871 16.6293 8.588 16.5533C7.79865 16.4328 7.02783 16.2453 6.3064 15.8918C5.59565 15.5439 4.99999 15.0699 4.65584 14.3319C4.40432 13.792 4.33527 13.2195 4.36951 12.6301C4.37007 12.6172 4.3785 12.6048 4.39422 12.562C5.38456 13.7115 6.60901 14.422 8.10294 14.6162C9.59631 14.8104 10.9594 14.4428 12.1957 13.5764C12.8486 15.2315 13.8204 16.6506 15.1448 17.8441C16.4664 16.658 17.4416 15.2382 18.0973 13.5714C19.3234 14.4355 20.6894 14.807 22.1867 14.6145C23.68 14.4225 24.905 13.7194 25.8915 12.5676C25.9083 12.5992 25.9223 12.6132 25.9235 12.6284C25.974 13.4909 25.8095 14.2925 25.234 14.9675C24.8208 15.4521 24.2914 15.7741 23.7115 16.0202C22.889 16.3692 22.0233 16.5403 21.1413 16.6304C19.8057 16.7672 18.5908 17.2322 17.4663 17.9527C16.6202 18.4948 15.8775 19.154 15.2425 19.9348C15.2155 19.9658 15.1875 19.9962 15.1442 20.0457Z" fill="#24D9AE"/>
<path d="M27.7879 28.8169C27.6194 28.5861 27.4797 28.388 27.3331 28.1943C26.8335 27.5357 26.2816 26.9249 25.6691 26.3698C25.5804 26.2899 25.5697 26.2229 25.6113 26.1154C26.2445 24.4536 26.5516 22.7315 26.5297 20.9538C26.5101 19.3691 26.2305 17.83 25.6713 16.3455C25.6253 16.2228 25.6354 16.1485 25.7376 16.0562C26.5443 15.3249 26.9542 14.3995 27.0434 13.3226C27.0614 13.1086 27.0648 12.8936 27.0928 12.6724C28.7311 14.5137 29.7803 16.6456 30.1621 19.0848C30.7185 22.642 29.8982 25.8727 27.7879 28.8169Z" fill="#24D9AE"/>
<path d="M3.27011 12.7055C3.27011 12.9099 3.25832 13.1153 3.27235 13.3191C3.34702 14.4118 3.78268 15.335 4.58888 16.0764C4.67421 16.1547 4.69611 16.2177 4.654 16.3286C4.06451 17.8896 3.7838 19.5058 3.7883 21.1744C3.79279 22.8812 4.09876 24.5312 4.70677 26.1243C4.74832 26.233 4.73541 26.2983 4.64839 26.3776C3.88823 27.0717 3.21621 27.8441 2.62897 28.6908C2.60595 28.724 2.579 28.7549 2.53746 28.8073C0.837485 26.4773 -0.033274 23.89 0.00097246 21.0213C0.0385874 17.8536 1.1356 15.0806 3.2033 12.6948C3.22519 12.6982 3.24765 12.7021 3.27011 12.7055Z" fill="#24D9AE"/>
<path d="M21.8466 6.16975C22.3059 6.08081 22.7241 6.02283 23.1289 5.91587C23.5662 5.80047 23.9929 5.64453 24.4207 5.49479C24.5246 5.4582 24.5914 5.46608 24.6683 5.54208C25.6682 6.52835 26.1684 7.72516 26.0853 9.12744C25.9815 10.881 25.1276 12.1943 23.5865 13.0213C21.2442 14.2783 18.2305 13.1862 17.2172 10.7268C17.1515 10.5674 17.1756 10.3575 17.2003 10.1768C17.3283 9.23947 17.7516 8.44403 18.3945 7.7595C18.4074 7.74599 18.422 7.7336 18.4371 7.72347C18.4439 7.71897 18.4545 7.72178 18.4809 7.72009C18.3114 8.45642 18.4562 9.12744 18.9098 9.72359C19.2383 10.1548 19.6717 10.4363 20.1983 10.5725C21.2122 10.8348 22.2963 10.3777 22.8224 9.46014C23.157 8.87637 23.2227 8.25432 23.0413 7.61201C22.8594 6.97251 22.4479 6.50808 21.8466 6.16975Z" fill="#24D9AE"/>
<path d="M11.8814 7.72521C11.9027 7.74098 11.9274 7.75336 11.9448 7.77194C12.6488 8.53191 13.08 9.41629 13.1513 10.4605C13.1575 10.554 13.1372 10.6581 13.1002 10.7448C12.3496 12.5001 10.5463 13.6226 8.64366 13.5229C6.44908 13.4081 4.64468 11.8184 4.29941 9.64146C4.04621 8.04553 4.5251 6.66914 5.67264 5.52975C5.72429 5.47852 5.76752 5.43799 5.85341 5.47571C6.6394 5.82135 7.46805 6.00656 8.31411 6.12309C8.34667 6.12759 8.37867 6.13266 8.41067 6.13941C8.41853 6.1411 8.4247 6.14955 8.45109 6.16925C7.87339 6.49575 7.46749 6.96299 7.27941 7.59743C7.09022 8.23524 7.16208 8.85053 7.48826 9.43149C7.9941 10.3322 9.01868 10.8006 10.0163 10.5934C10.3318 10.5281 10.6227 10.4054 10.8882 10.2219C11.1498 10.0412 11.3677 9.81766 11.5378 9.54914C11.7101 9.27724 11.846 8.98395 11.8746 8.66307C11.9027 8.35571 11.8814 8.04384 11.8814 7.72521Z" fill="#24D9AE"/>
<path d="M14.5835 4.99652C12.7982 3.36287 10.6738 2.52972 8.33154 2.15086C9.86927 1.13869 11.5507 0.504258 13.3691 0.258253C16.4659 -0.160574 19.3449 0.459223 21.9981 2.14861C19.6542 2.52578 17.5264 3.36399 15.7355 5.00553C15.7305 4.93403 15.7237 4.88055 15.7237 4.82764C15.7226 4.37728 15.7265 3.92693 15.7209 3.47658C15.7192 3.35386 15.7524 3.2728 15.8545 3.19398C16.2868 2.85847 16.412 2.28878 16.1729 1.80409C15.9376 1.32671 15.3981 1.07452 14.8906 1.20512C14.3629 1.34079 14.0047 1.81647 14.0311 2.36083C14.0485 2.71943 14.2096 3.00427 14.4937 3.22382C14.5425 3.26154 14.5953 3.33191 14.5958 3.38764C14.6031 3.89428 14.5998 4.40093 14.5986 4.90701C14.5986 4.9346 14.5897 4.96162 14.5835 4.99652Z" fill="#24D9AE"/>
<path d="M11.4658 34.8706C11.4782 34.838 11.4855 34.8104 11.4984 34.7862C11.6421 34.5126 11.7886 34.2407 11.9296 33.966C11.9851 33.8579 12.0486 33.8545 12.1547 33.9007C13.0889 34.3077 14.0568 34.6055 15.0589 34.7896C15.1167 34.8003 15.1802 34.8025 15.238 34.7918C16.2351 34.6078 17.1996 34.3139 18.1298 33.9097C18.2663 33.8506 18.3393 33.8647 18.4055 33.9981C18.5346 34.2582 18.6778 34.5109 18.8035 34.7721C18.8282 34.8234 18.8249 34.9134 18.7957 34.9624C17.8946 36.4868 16.7128 37.7467 15.2453 38.7369C15.156 38.7972 15.1032 38.76 15.0359 38.7144C13.9344 37.9724 12.9912 37.0633 12.2024 35.9954C11.9632 35.6717 11.7527 35.3272 11.5304 34.9917C11.5046 34.9534 11.4866 34.91 11.4658 34.8706Z" fill="#24D9AE"/>
<path d="M16.1763 9.28515C16.0657 9.01437 15.9349 8.74979 15.8484 8.4717C15.5587 7.53609 15.7833 6.70519 16.3997 5.96662C16.8287 5.45209 17.3614 5.06479 17.9341 4.7304C19.2175 3.98113 20.5946 3.49925 22.0667 3.28815C22.9425 3.16261 23.8189 3.02019 24.6194 2.61769C25.0736 2.38913 25.5048 2.11498 25.9461 1.86053C26.0095 1.82394 26.0696 1.78285 26.169 1.75977C26.1493 1.8898 26.1386 2.0221 26.1094 2.15045C25.9085 3.02807 25.3886 3.67095 24.6357 4.1365C23.9025 4.5891 23.0918 4.81878 22.2514 4.96177C21.6574 5.0631 21.0477 5.1087 20.4728 5.27645C18.4349 5.87035 16.9954 7.13809 16.2757 9.17312C16.2633 9.20746 16.2465 9.24067 16.2319 9.27445C16.2133 9.27783 16.1948 9.28177 16.1763 9.28515Z" fill="#24D9AE"/>
<path d="M14.1085 9.31882C14.0737 9.23832 14.0552 9.20286 14.0423 9.1657C13.4607 7.45718 12.2991 6.29189 10.6788 5.55613C9.96695 5.233 9.20903 5.1069 8.43989 5.01233C7.47706 4.89411 6.54511 4.65937 5.70691 4.14315C4.87545 3.63144 4.33088 2.91538 4.17873 1.92967C4.17256 1.88802 4.16919 1.84579 4.16751 1.80414C4.16694 1.79175 4.17593 1.77937 4.18603 1.75122C4.24105 1.785 4.29326 1.81314 4.34098 1.84692C5.41048 2.60858 6.5962 3.07357 7.89812 3.23569C9.49087 3.43385 10.9904 3.91122 12.3777 4.72748C12.9818 5.08326 13.5437 5.49308 13.9839 6.04927C14.6497 6.8903 14.7688 7.80789 14.3578 8.79585C14.2893 8.96192 14.204 9.12067 14.1085 9.31882Z" fill="#24D9AE"/>
<path d="M15.1822 11.1438C15.4241 11.4331 15.665 11.7067 15.8901 11.9933C16.2584 12.4622 16.5824 12.9615 16.8288 13.507C16.8558 13.5661 16.8608 13.6573 16.8344 13.7147C16.4263 14.607 15.9058 15.4272 15.258 16.1652C15.2305 16.1967 15.2114 16.2356 15.1771 16.2879C15.0778 16.1737 15.0036 16.0909 14.9329 16.0059C14.3625 15.3163 13.8881 14.5659 13.5069 13.7558C13.4609 13.6573 13.4603 13.5785 13.5069 13.4794C13.9094 12.6316 14.4703 11.897 15.1002 11.2102C15.1148 11.1928 15.1356 11.1804 15.1822 11.1438Z" fill="#24D9AE"/>
<path d="M24.1056 33.4466C24.0601 33.3345 24.0152 33.2225 23.9686 33.111C23.639 32.3241 23.2348 31.5821 22.661 30.9432C22.6083 30.8846 22.5959 30.8435 22.6577 30.7793C23.3084 30.1016 23.8866 29.3664 24.3868 28.5704C24.3986 28.5512 24.416 28.5355 24.4452 28.5C24.4755 28.5524 24.5025 28.5923 24.5233 28.6351C24.9269 29.4587 25.0342 30.3324 24.9584 31.2376C24.9101 31.8174 24.8017 32.3815 24.5148 32.8954C24.4065 33.0897 24.2746 33.2709 24.1539 33.4584C24.1381 33.4544 24.1219 33.4505 24.1056 33.4466Z" fill="#24D9AE"/>
<path d="M5.88026 28.4893C6.42764 29.3584 7.03285 30.1359 7.73462 30.8559C7.03678 31.6125 6.57586 32.5008 6.20869 33.4651C6.00321 33.245 5.8623 33.0102 5.74103 32.7625C5.47211 32.2125 5.3879 31.6203 5.35477 31.018C5.30986 30.209 5.42888 29.4294 5.77584 28.6914C5.80278 28.6334 5.83422 28.5776 5.88026 28.4893Z" fill="#24D9AE"/>
<path d="M20.4046 35.8942C20.1457 34.9952 19.8224 34.139 19.353 33.3751C20.0683 32.8887 20.7706 32.4113 21.4713 31.9351C21.9181 32.7327 21.2821 35.1663 20.4046 35.8942Z" fill="#24D9AE"/>
<path d="M8.85051 31.9226C9.55677 32.4017 10.2585 32.8785 10.9732 33.3632C10.4943 34.1237 10.1777 34.9816 9.92563 35.8677C9.13571 35.4584 8.4418 32.8683 8.85051 31.9226Z" fill="#24D9AE"/>
<path d="M21.072 7.95938C21.0743 8.46152 20.6751 8.86346 20.1743 8.86402C19.6758 8.86459 19.2716 8.45814 19.2749 7.95938C19.2777 7.47075 19.6853 7.06599 20.1749 7.06543C20.6656 7.06543 21.0703 7.46793 21.072 7.95938Z" fill="#24D9AE"/>
<path d="M8.94538 8.8601C8.44122 8.85953 8.04486 8.46041 8.04935 7.95827C8.05385 7.46963 8.46424 7.06432 8.95099 7.06938C9.44111 7.07445 9.84308 7.48089 9.8414 7.97009C9.83971 8.46266 9.43942 8.86066 8.94538 8.8601Z" fill="#24D9AE"/>
</svg>
