<svg width="94" height="106" viewBox="0 0 94 106" fill="none" xmlns="http://www.w3.org/2000/svg">
<g clip-path="url(#clip0_416_1390)">
<path d="M0.535609 19.9444C3.55618 16.6615 7.36201 16.5014 10.8878 16.8101C15.7866 17.3048 20.6864 18.3306 25.3061 19.8251C46.4081 27.2688 61.5632 41.653 71.3618 61.6339C73.835 66.7229 75.6227 72.2498 77.9101 78.1823C82.1772 74.0547 83.3832 67.775 87.556 63.2727C88.8079 65.6141 87.9688 67.5516 87.3164 69.1766C84.6135 75.8327 81.786 82.5201 78.8022 89.114C77.3413 92.2704 75.7825 92.9279 72.9719 91.2441C67.0698 87.8142 62.7874 82.9146 60.281 76.6387C60.2182 76.3889 60.4982 75.92 60.8401 75.17C66.5492 75.1954 67.0294 82.3792 72.2728 83.7169C72.1013 74.5961 68.5315 66.7283 64.2761 59.2985C59.8017 51.5254 54.6731 44.3151 47.8933 38.4497C41.2697 32.6779 33.7442 28.5937 25.6893 25.0411C17.7277 21.3323 9.39547 19.8415 0.535609 19.9444Z" fill="#24D9AE"/>
</g>
<defs>
<clipPath id="clip0_416_1390">
<rect width="74" height="90" fill="white" transform="translate(0.142578 18.3813) rotate(-14.1144)"/>
</clipPath>
</defs>
</svg>
