<svg width="109" height="121" viewBox="0 0 109 121" fill="none" xmlns="http://www.w3.org/2000/svg">
<g clip-path="url(#clip0_416_1392)">
<path d="M108.364 26.1904C105.184 22.34 100.939 21.9332 96.9796 22.0673C91.4741 22.3271 85.9358 23.1803 80.6825 24.5744C56.6492 31.6318 38.848 46.8032 26.6991 68.5513C23.63 74.0916 21.3009 80.1626 18.3889 86.657C13.8663 81.7878 12.8941 74.6962 8.49925 69.4138C6.95978 71.9561 7.78171 74.172 8.41368 76.0274C11.0365 83.6293 13.7969 91.2738 16.7374 98.823C18.1815 102.439 19.8845 103.267 23.127 101.553C29.9297 98.0723 35.0097 92.8519 38.187 85.9868C38.2722 85.7113 37.9873 85.1705 37.65 84.3116C31.2669 83.9982 30.3002 91.9995 24.359 93.181C25.0966 82.9961 29.5579 74.4152 34.7593 66.3649C40.2261 57.944 46.3903 50.1914 54.3198 44.0409C62.0691 37.9857 70.7255 33.8709 79.9419 30.3819C89.0633 26.7127 98.4663 25.5452 108.364 26.1904Z" fill="#24D9AE"/>
</g>
<defs>
<clipPath id="clip0_416_1392">
<rect width="82.8352" height="100.746" fill="white" transform="matrix(-0.955383 -0.295368 -0.295368 0.955383 108.896 24.4668)"/>
</clipPath>
</defs>
</svg>
